<svg width="103" height="15" viewBox="0 0 103 15" fill="none" xmlns="http://www.w3.org/2000/svg">
<path d="M8.75137 12.9492V8.93209H3.03753L3.04847 12.8783C3.04847 13.7188 2.36435 14.4065 1.5215 14.4065H0C0 13.5714 0 13.7297 0 12.8892C0.00547303 9.25957 0 0.384766 0 0.384766H1.51055C2.3534 0.384766 3.03205 1.06157 3.03205 1.89665C3.03205 3.63231 3.03205 6.24672 3.03205 6.24672H8.74589V1.89119C8.74589 1.05611 9.42455 0.384766 10.2565 0.384766H11.778V14.4011H10.2017C9.39718 14.4011 8.74589 13.7516 8.74589 12.9492H8.75137Z" fill="white"/>
<path d="M20.2088 3.18749C19.8694 2.78359 19.3878 2.58165 18.7639 2.58165C17.9046 2.58165 17.319 2.90367 17.007 3.54226C16.9195 3.72238 16.8483 3.95162 16.7991 4.23544C16.6841 4.85766 16.1149 5.29976 15.4801 5.29976H13.9421C13.9859 4.08261 14.2103 3.0947 14.6044 2.34149C15.3597 0.911478 16.6951 0.196472 18.6216 0.196472C20.1431 0.196472 21.3526 0.616743 22.2502 1.45728C23.1478 2.29783 23.5966 3.41127 23.5966 4.79216C23.5966 5.85648 23.2791 6.79527 22.6443 7.61943C22.2283 8.16524 21.5442 8.77654 20.5919 9.44789L19.459 10.2502C18.7529 10.7524 18.2658 11.1126 18.0086 11.3364C17.7459 11.5602 17.527 11.8221 17.3518 12.1169H22.3816C23.0712 12.1169 23.6239 12.6736 23.6239 13.3559V14.5948H13.778C13.8053 13.5687 14.0242 12.6245 14.4402 11.7785C14.8452 10.8233 15.7975 9.80812 17.2971 8.7438C18.5997 7.81593 19.4425 7.15004 19.8256 6.74615C20.4113 6.11847 20.7068 5.43621 20.7068 4.68846C20.7068 4.08261 20.5371 3.57501 20.2033 3.17657L20.2088 3.18749Z" fill="white"/>
<path d="M30.5825 14.7913C28.749 14.7913 27.4683 14.1528 26.7295 12.8756C25.9906 11.5984 25.6239 9.77538 25.6239 7.40659C25.6239 5.03779 25.9906 3.2148 26.7295 1.92669C27.4683 0.638592 28.749 0 30.5825 0C32.4159 0 33.7021 0.644051 34.4409 1.92669C35.1743 3.2148 35.541 5.03779 35.541 7.40659C35.541 9.77538 35.1743 11.5984 34.4355 12.8756C33.6966 14.1528 32.4159 14.7913 30.5825 14.7913ZM32.2408 11.1836C32.498 10.3157 32.6294 9.05492 32.6294 7.40659C32.6294 5.75825 32.498 4.3992 32.2353 3.56957C31.9726 2.73995 31.4253 2.32513 30.5825 2.32513C29.7396 2.32513 29.1868 2.73995 28.9187 3.56957C28.645 4.3992 28.5137 5.68184 28.5137 7.40659C28.5137 9.13133 28.6505 10.3157 28.9187 11.189C29.1868 12.0623 29.7451 12.499 30.5825 12.499C31.4198 12.499 31.9726 12.0623 32.2408 11.1836Z" fill="white"/>
<g clipPath="url(#clip0_40_255)">
<path d="M40.5411 14.7871V0.695435H43.4764V12.9212C43.4764 13.9517 42.6452 14.7871 41.6198 14.7871H40.5411ZM42.0184 10.3539V8.03982H45.459C46.3007 8.03982 46.9556 7.8239 47.4224 7.39056C47.8891 6.95722 48.1218 6.3437 48.1218 5.55V5.53064C48.1218 4.72353 47.8891 4.10703 47.4224 3.67965C46.9556 3.25376 46.3022 3.03932 45.459 3.03932H42.0184V0.695435H46.1777C47.1631 0.695435 48.024 0.894978 48.7634 1.29555C49.5013 1.69613 50.0762 2.25753 50.4881 2.97976C50.9001 3.70199 51.1045 4.5493 51.1045 5.51872V5.53808C51.1045 6.50155 50.8986 7.3444 50.4881 8.06811C50.0762 8.79034 49.5013 9.35175 48.7634 9.75232C48.0254 10.1529 47.1631 10.3524 46.1777 10.3524H42.0184V10.3539Z" fill="#53DC76"/>
<path d="M52.106 14.7856V4.317H54.9436V6.14267H55.0014C55.157 5.49788 55.4385 4.99753 55.8475 4.63865C56.255 4.28126 56.7647 4.10107 57.3737 4.10107C57.5293 4.10107 57.6775 4.1115 57.8212 4.13086C57.9634 4.15022 58.0864 4.17702 58.1901 4.20829V6.22904C58.1901 6.46432 57.9797 6.64451 57.7486 6.60728H57.7427C57.5619 6.5775 57.3663 6.5626 57.1588 6.5626C56.6921 6.5626 56.2935 6.65344 55.9631 6.8366C55.6326 7.01828 55.3792 7.28632 55.2044 7.63776C55.0295 7.98919 54.9421 8.41955 54.9421 8.92734V13.0031C54.9421 13.9874 54.1479 14.7871 53.167 14.7871H52.1046L52.106 14.7856Z" fill="#53DC76"/>
<path d="M64.3215 14.7856C63.259 14.7856 62.3448 14.5652 61.5817 14.1259C60.8171 13.6866 60.2274 13.0597 59.8125 12.2466C59.3976 11.4336 59.1901 10.4686 59.1901 9.35623V9.3458C59.1901 8.23194 59.3976 7.26698 59.8125 6.44945C60.2274 5.63192 60.8082 5.00053 61.5565 4.55528C62.3048 4.11003 63.1879 3.88666 64.2044 3.88666C65.2209 3.88666 66.1011 4.10258 66.8434 4.53592C67.5858 4.96925 68.1592 5.5798 68.5637 6.36755C68.9683 7.1553 69.1713 8.07707 69.1713 9.13137V10.0204H60.5904V8.21407H67.8303L66.4789 9.90423V8.80078C66.4789 8.18875 66.3856 7.67649 66.1974 7.26251C66.0092 6.84854 65.7484 6.5388 65.415 6.33032C65.0816 6.12184 64.6949 6.0176 64.2533 6.0176C63.8117 6.0176 63.422 6.12482 63.0827 6.33925C62.7434 6.55369 62.4767 6.86789 62.2855 7.28187C62.0944 7.69585 61.9995 8.20215 61.9995 8.80078V9.91465C61.9995 10.488 62.0944 10.9794 62.2855 11.3889C62.4767 11.7984 62.7508 12.1126 63.1064 12.3315C63.462 12.5504 63.8873 12.6591 64.3792 12.6591C64.7675 12.6591 65.1053 12.5966 65.3898 12.473C65.6743 12.3494 65.9084 12.193 66.0892 12.0039C66.27 11.8148 66.393 11.6227 66.4582 11.4276L66.4774 11.3695H69.0824L69.0527 11.4767C68.9757 11.8609 68.823 12.2481 68.5963 12.6383C68.3696 13.0284 68.0629 13.3873 67.6776 13.7119C67.2924 14.0381 66.8227 14.2986 66.2685 14.4937C65.7143 14.6888 65.0653 14.7871 64.32 14.7871L64.3215 14.7856Z" fill="#53DC76"/>
<path d="M74.418 14.787C73.5438 14.787 72.7881 14.5696 72.1539 14.1333C71.5182 13.697 71.0292 13.0715 70.6869 12.2585C70.3431 11.4454 70.1713 10.4715 70.1713 9.3383V9.32787C70.1713 8.18869 70.3431 7.21331 70.6869 6.40322C71.0307 5.59314 71.5197 4.97068 72.1539 4.53735C72.7881 4.10401 73.5408 3.88809 74.4091 3.88809C74.9085 3.88809 75.3648 3.96999 75.7797 4.1323C76.1946 4.29462 76.5591 4.52841 76.8733 4.8307C77.1874 5.133 77.4378 5.49635 77.626 5.91926H77.6838V0.480957H80.5214V14.5726H79.4619C78.4795 14.5726 77.6838 13.7729 77.6838 12.7856H77.626C77.4378 13.2026 77.1889 13.56 76.8777 13.8593C76.5665 14.1586 76.2035 14.3879 75.7886 14.5473C75.3737 14.7066 74.9173 14.787 74.418 14.787ZM75.3708 12.4238C75.8301 12.4238 76.2361 12.2987 76.5858 12.0485C76.9355 11.7983 77.2067 11.4409 77.3978 10.9793C77.589 10.5177 77.6838 9.96969 77.6838 9.3383V9.32787C77.6838 8.70244 77.586 8.15891 77.3919 7.69728C77.1978 7.23565 76.9266 6.87826 76.5799 6.62808C76.2331 6.37791 75.8301 6.25282 75.3693 6.25282C74.9085 6.25282 74.4876 6.37642 74.1453 6.62362C73.8016 6.87081 73.5363 7.22373 73.3482 7.68388C73.16 8.14253 73.0666 8.69202 73.0666 9.32936V9.33979C73.0666 9.97118 73.1585 10.5177 73.3437 10.9808C73.5289 11.4424 73.7942 11.7998 74.1409 12.05C74.4876 12.3002 74.8966 12.4253 75.3708 12.4253V12.4238Z" fill="#53DC76"/>
<path d="M83.0461 2.97826C82.6179 2.97826 82.2578 2.83083 81.9629 2.5345C81.6681 2.23816 81.5214 1.88822 81.5214 1.48466C81.5214 1.08111 81.6681 0.725206 81.9629 0.434826C82.2578 0.144446 82.6193 0 83.0461 0C83.4728 0 83.8329 0.144446 84.1248 0.434826C84.4167 0.725206 84.5619 1.07515 84.5619 1.48466C84.5619 1.89417 84.4167 2.23816 84.1248 2.5345C83.8329 2.83083 83.4743 2.97826 83.0461 2.97826ZM81.6177 14.7856V4.31699H84.4656V12.9867C84.4656 13.9814 83.664 14.7871 82.6742 14.7871H81.6177V14.7856Z" fill="#53DC76"/>
<path d="M90.7111 14.7871C89.6546 14.7871 88.7418 14.5652 87.9713 14.1229C87.2008 13.6806 86.6066 13.0507 86.1887 12.2332C85.7709 11.4157 85.562 10.4477 85.562 9.32791V9.31749C85.562 8.19766 85.7724 7.23271 86.1932 6.42262C86.614 5.61253 87.2082 4.9871 87.9757 4.54781C88.7433 4.10851 89.6457 3.88812 90.6814 3.88812C91.6268 3.88812 92.4462 4.06533 93.1397 4.41974C93.8331 4.77415 94.3755 5.25514 94.7666 5.85973C95.1593 6.46581 95.3742 7.14634 95.4127 7.90133V7.96983H92.7692L92.7589 7.88197C92.6744 7.38758 92.461 6.97062 92.1173 6.63259C91.7735 6.29456 91.3067 6.12479 90.7185 6.12479C90.2591 6.12479 89.8591 6.25286 89.5183 6.51048C89.1774 6.7681 88.9152 7.13591 88.7314 7.61392C88.5462 8.09193 88.4543 8.66376 88.4543 9.32791V9.33834C88.4543 10.0218 88.5462 10.6026 88.7314 11.0821C88.9167 11.5601 89.1789 11.925 89.5183 12.1766C89.8591 12.4268 90.2621 12.5519 90.7288 12.5519C91.2993 12.5519 91.7572 12.3911 92.1039 12.0679C92.4507 11.7463 92.6685 11.3204 92.7603 10.7932L92.7796 10.7054H95.4231V10.7634C95.3771 11.5259 95.1578 12.2094 94.7622 12.814C94.3666 13.42 93.8242 13.8995 93.1337 14.254C92.4432 14.6084 91.6357 14.7856 90.7096 14.7856L90.7111 14.7871Z" fill="#53DC76"/>
<path d="M101.271 14.7871C100.119 14.7871 99.2636 14.5429 98.7064 14.0544C98.1493 13.566 97.8707 12.7619 97.8707 11.642V6.25288H96.423V4.10406H97.8707V1.54425H100.738V4.10406H102.642V6.25288H100.738V11.3308C100.738 11.8192 100.846 12.1588 101.064 12.3509C101.28 12.543 101.603 12.6383 102.031 12.6383C102.16 12.6383 102.275 12.6338 102.372 12.6234C102.372 12.6234 102.374 12.6234 102.375 12.6234C102.519 12.6085 102.645 12.7202 102.645 12.8661V14.1155C102.645 14.4431 102.399 14.7201 102.073 14.7528C102.07 14.7528 102.069 14.7528 102.066 14.7528C101.836 14.7752 101.572 14.7871 101.273 14.7871H101.271Z" fill="#53DC76"/>
</g>
<defs>
<clipPath id="clip0_40_255">
<rect width="62.1039" height="14.7871" fill="white" transform="translate(40.5411)"/>
</clipPath>
</defs>
</svg>
