<svg width="21" height="16" viewBox="0 0 21 16" fill="none" xmlns="http://www.w3.org/2000/svg">
<path d="M2.17421 6.88788C7.35752 4.6301 10.813 3.1415 12.5408 2.42233C17.4796 0.368727 18.5046 0.0120619 19.1741 0.000117471C19.3213 -0.00238252 19.649 0.034006 19.8629 0.207061C20.0407 0.352894 20.0908 0.550115 20.1158 0.688448C20.138 0.826781 20.1686 1.14206 20.1436 1.38817C19.8769 4.19927 18.7186 11.0209 18.1297 14.1695C17.8825 15.5018 17.3908 15.9485 16.9158 15.9921C15.8824 16.0871 15.0991 15.3099 14.0991 14.6545C12.5352 13.6287 11.6519 12.9904 10.1325 11.9895C8.37693 10.8329 9.51579 10.197 10.5158 9.15815C10.7769 8.8862 15.3268 4.74871 15.4129 4.37344C15.4241 4.32649 15.4352 4.15149 15.3297 4.05927C15.2269 3.96677 15.074 3.99844 14.9629 4.02344C14.8046 4.05899 12.3074 5.71121 7.46295 8.97981C6.75462 9.46703 6.11297 9.70453 5.5352 9.69203C4.90187 9.67842 3.67973 9.33315 2.7714 9.03815C1.6603 8.6762 0.774147 8.48482 0.851924 7.8701C0.890813 7.5501 1.33255 7.2226 2.17421 6.88788Z" fill="#FFFCFC"/>
</svg>
