<svg width="33" height="33" viewBox="0 0 33 33" fill="none" xmlns="http://www.w3.org/2000/svg">
<rect x="0.5" y="0.791382" width="32" height="32" rx="10" fill="#1B1B1B"/>
<path d="M10.4196 15.5428C10.4196 15.5428 17.0538 12.9086 19.3546 11.981C20.2366 11.61 23.2277 10.4227 23.2277 10.4227C23.2277 10.4227 24.6082 9.9033 24.4932 11.1648C24.4548 11.6842 24.1481 13.5022 23.8413 15.4686C23.3811 18.2513 22.8826 21.2936 22.8826 21.2936C22.8826 21.2936 22.8059 22.147 22.154 22.2954C21.5021 22.4438 20.4283 21.776 20.2366 21.6276C20.0832 21.5163 17.3605 19.8467 16.3635 19.0304C16.0951 18.8078 15.7883 18.3626 16.4018 17.8432C17.7824 16.6188 19.4313 15.0976 20.4283 14.133C20.8885 13.6877 21.3487 12.6489 19.4313 13.9103C16.7086 15.7283 14.0243 17.435 14.0243 17.435C14.0243 17.435 13.4107 17.806 12.2603 17.4721C11.1098 17.1382 9.76767 16.693 9.76767 16.693C9.76767 16.693 8.84739 16.1365 10.4196 15.5428Z" fill="white"/>
</svg>
