<svg width="33" height="33" viewBox="0 0 33 33" fill="none" xmlns="http://www.w3.org/2000/svg">
<g clip-path="url(#clip0_1_451)">
<rect x="0.5" y="0.791382" width="32" height="32" rx="10" fill="#1B1B1B"/>
<rect x="8.5" y="8.79138" width="16" height="16" rx="8" fill="white"/>
<g clip-path="url(#clip1_1_451)">
<path d="M21.0966 12.5515V15.0769C21.0966 17.5547 19.0743 19.5695 16.5892 19.5695C16.1476 19.5695 15.7134 19.5048 15.2972 19.3784V18.3243C15.2972 17.6215 15.8716 17.0493 16.5764 17.0493H16.5892C16.8599 17.0493 17.1168 16.9952 17.3524 16.8965C17.4777 16.8445 17.5955 16.7808 17.7059 16.7043C18.2272 16.3487 18.5701 15.751 18.5701 15.0759V12.5515C18.5701 11.8583 19.1369 11.2914 19.8333 11.2914C20.5297 11.2914 21.0966 11.8572 21.0966 12.5515Z" fill="#1B1B1B"/>
<path d="M17.8673 14.0228V15.0769C17.8673 15.7797 17.2941 16.3519 16.5892 16.3519H16.5764C16.3578 16.3519 16.1486 16.3869 15.9522 16.4538C15.8217 16.4963 15.6964 16.5536 15.5807 16.6215C14.9926 16.9644 14.5966 17.6003 14.5966 18.3264V20.8668C14.5966 21.56 14.0297 22.1268 13.3333 22.1268C12.6369 22.1268 12.0701 21.561 12.0701 20.8668V18.3264C12.0701 17.1778 12.5042 16.13 13.2176 15.3349C13.4873 15.0334 13.7972 14.7691 14.1391 14.5504C14.8418 14.0971 15.6794 13.8338 16.5764 13.8338C17.018 13.8338 17.4522 13.8997 17.8673 14.0249V14.0228Z" fill="#1B1B1B"/>
</g>
</g>
<defs>
<clipPath id="clip0_1_451">
<rect x="0.5" y="0.791382" width="32" height="32" rx="10" fill="white"/>
</clipPath>
<clipPath id="clip1_1_451">
<rect width="10.8333" height="10.8333" fill="white" transform="translate(11.1667 11.2914)"/>
</clipPath>
</defs>
</svg>
