<svg width="13" height="15" viewBox="0 0 13 15" fill="none" xmlns="http://www.w3.org/2000/svg">
<path fillRule="evenodd" clipRule="evenodd" d="M7.87464 1.95776H6.70827V2.56892C7.96005 2.68768 9.10321 3.18471 10.0219 3.94413L10.9626 3.00344C11.1901 2.77594 11.5592 2.77594 11.7876 3.00344C12.016 3.23094 12.0151 3.60095 11.7876 3.82845L10.8469 4.76911C11.723 5.82875 12.25 7.18712 12.25 8.66638C12.25 12.044 9.50261 14.7914 6.125 14.7914C2.74739 14.7914 0 12.044 0 8.66638C0 5.48572 2.43634 2.86392 5.54102 2.56898V1.95776H4.37464C4.0527 1.95776 3.79102 1.69608 3.79102 1.37413C3.79102 1.05219 4.05187 0.791382 4.37464 0.791382H6.12464H7.87464C8.19659 0.791382 8.45827 1.05306 8.45827 1.37501C8.45827 1.69695 8.19741 1.95776 7.87464 1.95776ZM7.87587 11.5828C8.00178 11.583 8.12431 11.5421 8.22489 11.4664L8.22495 11.4663C8.48318 11.273 8.53464 10.9073 8.34307 10.6492L6.70945 8.47137V5.45688C6.70945 5.1339 6.44782 4.87331 6.12587 4.87331C5.80393 4.87331 5.5422 5.13499 5.5422 5.45688V8.66551C5.5417 8.79176 5.58262 8.91468 5.65868 9.01545L7.40868 11.3491C7.52314 11.5022 7.69836 11.5828 7.87587 11.5828Z" fill="white" fill-opacity="0.6"/>
</svg>
