<svg width="14" height="12" viewBox="0 0 14 12" fill="none" xmlns="http://www.w3.org/2000/svg">
<path d="M0.00012207 10.2666C0.00012207 10.2098 0.00012207 10.1531 0.00012207 10.0963C0.0148877 10.0379 0.0304736 9.97941 0.0446924 9.92067C0.472622 8.15701 1.40997 6.75374 2.83348 5.70122C3.97645 4.85614 5.26516 4.37032 6.62907 4.08115C7.02911 3.99631 7.43407 3.93615 7.84915 3.86236V3.71196C7.84915 2.61489 7.84915 1.51753 7.84969 0.420463C7.84969 0.354627 7.85188 0.287372 7.86501 0.223523C7.90985 0.00870587 8.03344 -0.0591162 8.21336 0.0543936C8.35172 0.141512 8.47833 0.254455 8.59508 0.372221C10.3043 2.0953 12.012 3.8198 13.7157 5.54855C13.8292 5.66348 13.9063 5.817 14.0001 5.95265V6.09453C13.9219 6.20804 13.8582 6.33659 13.7636 6.43251C12.0625 8.15701 10.3582 9.8781 8.65223 11.5975C8.54504 11.7053 8.425 11.8012 8.30223 11.8898C8.2027 11.9616 8.08922 12.0442 7.96262 11.9724C7.8352 11.9 7.84805 11.7578 7.84805 11.6307C7.84805 10.4201 7.8486 9.20953 7.84887 7.99895C7.84887 7.95382 7.84504 7.90871 7.84258 7.85904C6.55032 7.75802 5.28868 7.84741 4.04782 8.18255C2.69567 8.54776 1.48899 9.1837 0.519653 10.2547C0.470981 10.3086 0.406724 10.3509 0.343013 10.3855C0.163364 10.4831 0.083794 10.453 0.00012207 10.2666Z" fill="white"/>
</svg>
