<svg width="14" height="12" viewBox="0 0 14 12" fill="none" xmlns="http://www.w3.org/2000/svg">
<path d="M0.000137329 10.2666C0.000137329 10.2098 0.000137329 10.1531 0.000137329 10.0963C0.014903 10.0379 0.0304889 9.97941 0.0447076 9.92067C0.472637 8.15701 1.40998 6.75374 2.8335 5.70122C3.97647 4.85614 5.26518 4.37032 6.62908 4.08115C7.02912 3.99631 7.43408 3.93615 7.84916 3.86236V3.71196C7.84916 2.61489 7.84916 1.51753 7.84971 0.420463C7.84971 0.354627 7.8519 0.287372 7.86502 0.223523C7.90986 0.00870587 8.03346 -0.0591162 8.21338 0.0543936C8.35174 0.141512 8.47834 0.254455 8.5951 0.372221C10.3044 2.0953 12.012 3.8198 13.7158 5.54855C13.8292 5.66348 13.9063 5.817 14.0001 5.95265V6.09453C13.9219 6.20804 13.8582 6.33659 13.7636 6.43251C12.0626 8.15701 10.3582 9.8781 8.65225 11.5975C8.54506 11.7053 8.42502 11.8012 8.30225 11.8898C8.20272 11.9616 8.08924 12.0442 7.96264 11.9724C7.83522 11.9 7.84807 11.7578 7.84807 11.6307C7.84807 10.4201 7.84861 9.20953 7.84889 7.99895C7.84889 7.95382 7.84506 7.90871 7.8426 7.85904C6.55033 7.75802 5.28869 7.84741 4.04783 8.18255C2.69568 8.54776 1.489 9.1837 0.519669 10.2547C0.470997 10.3086 0.406739 10.3509 0.343028 10.3855C0.16338 10.4831 0.0838092 10.453 0.000137329 10.2666Z" fill="white"/>
</svg>
