<svg width="14" height="12" viewBox="0 0 14 12" fill="none" xmlns="http://www.w3.org/2000/svg">
<path d="M0.000152588 10.2666C0.000152588 10.2098 0.000152588 10.1531 0.000152588 10.0963C0.0149182 10.0379 0.0305042 9.97941 0.0447229 9.92067C0.472653 8.15701 1.41 6.75374 2.83351 5.70122C3.97648 4.85614 5.26519 4.37032 6.6291 4.08115C7.02914 3.99631 7.4341 3.93615 7.84918 3.86236V3.71196C7.84918 2.61489 7.84918 1.51753 7.84972 0.420463C7.84972 0.354627 7.85191 0.287372 7.86504 0.223523C7.90988 0.00870587 8.03347 -0.0591162 8.2134 0.0543936C8.35175 0.141512 8.47836 0.254455 8.59511 0.372221C10.3044 2.0953 12.012 3.8198 13.7158 5.54855C13.8293 5.66348 13.9064 5.817 14.0002 5.95265V6.09453C13.922 6.20804 13.8582 6.33659 13.7636 6.43251C12.0626 8.15701 10.3582 9.8781 8.65226 11.5975C8.54508 11.7053 8.42504 11.8012 8.30226 11.8898C8.20273 11.9616 8.08926 12.0442 7.96265 11.9724C7.83523 11.9 7.84808 11.7578 7.84808 11.6307C7.84808 10.4201 7.84863 9.20953 7.8489 7.99895C7.8489 7.95382 7.84508 7.90871 7.84261 7.85904C6.55035 7.75802 5.28871 7.84741 4.04785 8.18255C2.6957 8.54776 1.48902 9.1837 0.519684 10.2547C0.471012 10.3086 0.406754 10.3509 0.343043 10.3855C0.163395 10.4831 0.0838245 10.453 0.000152588 10.2666Z" fill="white"/>
</svg>
